<mxfile host="app.diagrams.net" modified="2023-04-28T00:57:30.084Z" agent="Mozilla/5.0 (Macintosh; Intel Mac OS X 10_15_7) AppleWebKit/537.36 (KHTML, like Gecko) Chrome/112.0.0.0 Safari/537.36" version="21.2.3" etag="jtJp1M-t7lwEgs9oWAQe" type="github">
  <diagram name="Page-1" id="nBCG2uwiSJT6OS5HmX8i">
    <mxGraphModel>
      <root>
        <mxCell id="0" />
        <mxCell id="1" parent="0" />
      </root>
    </mxGraphModel>
  </diagram>
</mxfile>
